<?xml version="1.0" encoding="utf-8"?>
<!-- Generator: Adobe Illustrator 22.0.0, SVG Export Plug-In . SVG Version: 6.00 Build 0)  -->
<svg version="1.1" id="Layer_1" xmlns="http://www.w3.org/2000/svg" xmlns:xlink="http://www.w3.org/1999/xlink" x="0px" y="0px"
	 viewBox="0 0 50 50" style="enable-background:new 0 0 50 50;" xml:space="preserve">
<style type="text/css">
	.st0{fill:url(#SVGID_1_);}
</style>
<linearGradient id="SVGID_1_" gradientUnits="userSpaceOnUse" x1="42.1234" y1="42.1425" x2="7.8548" y2="7.8739">
	<stop  offset="0" style="stop-color:#ED1C24"/>
	<stop  offset="0.9629" style="stop-color:#F9ED32"/>
</linearGradient>
<path class="st0" d="M28.1,2.5L28.1,2.5c0.6,2.5,3.7,3.3,5.4,1.5l0,0c2.3-2.4,6.3-0.1,5.4,3.1l0,0c-0.7,2.4,1.6,4.7,4,4l0,0
	c3.2-0.9,5.5,3.1,3.1,5.4l0,0c-1.8,1.8-1,4.8,1.5,5.4l0,0c3.3,0.8,3.3,5.4,0,6.2l0,0c-2.5,0.6-3.3,3.7-1.5,5.4l0,0
	c2.4,2.3,0.1,6.3-3.1,5.4l0,0c-2.4-0.7-4.7,1.6-4,4l0,0c0.9,3.2-3.1,5.5-5.4,3.1l0,0c-1.8-1.8-4.8-1-5.4,1.5l0,0
	c-0.8,3.3-5.4,3.3-6.2,0l0,0c-0.6-2.5-3.7-3.3-5.4-1.5l0,0c-2.3,2.4-6.3,0.1-5.4-3.1l0,0c0.7-2.4-1.6-4.7-4-4l0,0
	c-3.2,0.9-5.5-3.1-3.1-5.4l0,0c1.8-1.8,1-4.8-1.5-5.4l0,0c-3.3-0.8-3.3-5.4,0-6.2l0,0c2.5-0.6,3.3-3.7,1.5-5.4l0,0
	C1.5,14.1,3.8,10.1,7,11l0,0c2.4,0.7,4.7-1.6,4-4l0,0c-0.9-3.2,3.1-5.5,5.4-3.1l0,0c1.8,1.8,4.8,1,5.4-1.5l0,0
	C22.7-0.8,27.3-0.8,28.1,2.5z"/>
</svg>
